<svg width="93" height="47" viewBox="0 0 93 47" fill="none" xmlns="http://www.w3.org/2000/svg">
<path d="M17.8352 0.995962C22.5792 0.995962 26.7249 1.93622 30.2722 3.81673C33.8195 5.69724 36.5548 8.34705 38.4781 11.7662C40.4441 15.1425 41.4271 19.0531 41.4271 23.498C41.4271 27.9001 40.4441 31.8107 38.4781 35.2298C36.5548 38.6489 33.7982 41.2987 30.2081 43.1792C26.6608 45.0597 22.5365 46 17.8352 46H0.974716V0.995962H17.8352ZM17.13 36.512C21.2757 36.512 24.5025 35.3794 26.8104 33.1142C29.1183 30.8491 30.2722 27.6437 30.2722 23.498C30.2722 19.3523 29.1183 16.1255 26.8104 13.8176C24.5025 11.5097 21.2757 10.3558 17.13 10.3558H11.9372V36.512H17.13ZM69.799 46.4488C65.5678 46.4488 61.6786 45.4658 58.1313 43.4998C54.6267 41.5338 51.8273 38.7985 49.7331 35.2939C47.6816 31.7466 46.6559 27.7719 46.6559 23.3698C46.6559 18.9677 47.6816 15.0143 49.7331 11.5097C51.8273 8.00514 54.6267 5.26985 58.1313 3.30386C61.6786 1.33787 65.5678 0.354879 69.799 0.354879C74.0301 0.354879 77.898 1.33787 81.4026 3.30386C84.9499 5.26985 87.728 8.00514 89.7367 11.5097C91.7882 15.0143 92.8139 18.9677 92.8139 23.3698C92.8139 27.7719 91.7882 31.7466 89.7367 35.2939C87.6852 38.7985 84.9072 41.5338 81.4026 43.4998C77.898 45.4658 74.0301 46.4488 69.799 46.4488ZM69.799 36.4479C73.3891 36.4479 76.2526 35.2512 78.3895 32.8578C80.5692 30.4644 81.659 27.3017 81.659 23.3698C81.659 19.395 80.5692 16.2324 78.3895 13.8817C76.2526 11.4884 73.3891 10.2917 69.799 10.2917C66.1662 10.2917 63.26 11.467 61.0803 13.8176C58.9433 16.1683 57.8749 19.3523 57.8749 23.3698C57.8749 27.3445 58.9433 30.5285 61.0803 32.9219C63.26 35.2725 66.1662 36.4479 69.799 36.4479Z" fill="white"/>
</svg>
