<svg width="160" height="47" viewBox="0 0 160 47" fill="none" xmlns="http://www.w3.org/2000/svg">
<path d="M31.1824 0.995962V31.6397C31.1824 36.3838 29.8361 40.0379 27.1436 42.6023C24.4937 45.1666 20.9037 46.4488 16.3734 46.4488C11.6293 46.4488 7.82558 45.1025 4.96207 42.4099C2.09857 39.7174 0.666816 35.8923 0.666816 30.9345H11.5652C11.5652 32.8151 11.9499 34.2468 12.7192 35.2298C13.4885 36.1701 14.5997 36.6402 16.0528 36.6402C17.3777 36.6402 18.4035 36.2128 19.13 35.358C19.8566 34.5032 20.2199 33.2638 20.2199 31.6397V0.995962H31.1824ZM51.7692 0.995962V27.9215C51.7692 30.614 52.4316 32.6868 53.7565 34.14C55.0814 35.5931 57.026 36.3196 59.5904 36.3196C62.1547 36.3196 64.1207 35.5931 65.4883 34.14C66.856 32.6868 67.5398 30.614 67.5398 27.9215V0.995962H78.5023V27.8573C78.5023 31.8748 77.6475 35.2725 75.938 38.0506C74.2284 40.8286 71.9205 42.9228 69.0143 44.3332C66.1508 45.7436 62.9454 46.4488 59.398 46.4488C55.8507 46.4488 52.6667 45.7649 49.8459 44.3973C47.0679 42.9869 44.8668 40.8927 43.2427 38.1147C41.6187 35.2939 40.8066 31.8748 40.8066 27.8573V0.995962H51.7692ZM103.445 46.4488C100.155 46.4488 97.2056 45.9145 94.5985 44.8461C91.9914 43.7776 89.8972 42.1962 88.3159 40.102C86.7773 38.0078 85.9653 35.4862 85.8798 32.5373H97.5475C97.7185 34.2041 98.2954 35.4862 99.2784 36.3838C100.261 37.2385 101.544 37.6659 103.125 37.6659C104.749 37.6659 106.031 37.3026 106.971 36.5761C107.912 35.8068 108.382 34.7597 108.382 33.4348C108.382 32.3236 107.997 31.4047 107.228 30.6781C106.501 29.9516 105.582 29.3532 104.471 28.8831C103.403 28.413 101.864 27.8787 99.8554 27.2804C96.9492 26.3829 94.5772 25.4853 92.7394 24.5878C90.9016 23.6903 89.3203 22.3654 87.9954 20.6131C86.6705 18.8608 86.008 16.5743 86.008 13.7535C86.008 9.56511 87.5252 6.29558 90.5597 3.94494C93.5942 1.55157 97.5475 0.354879 102.42 0.354879C107.377 0.354879 111.374 1.55157 114.408 3.94494C117.442 6.29558 119.067 9.58648 119.28 13.8176H107.42C107.335 12.3645 106.8 11.2319 105.817 10.4199C104.834 9.56511 103.574 9.13772 102.035 9.13772C100.71 9.13772 99.6417 9.501 98.8297 10.2276C98.0176 10.9114 97.6116 11.9157 97.6116 13.2406C97.6116 14.6938 98.2954 15.8264 99.6631 16.6384C101.031 17.4504 103.168 18.3266 106.074 19.2668C108.98 20.2498 111.331 21.1901 113.126 22.0876C114.964 22.9851 116.545 24.2886 117.87 25.9982C119.195 27.7078 119.857 29.9088 119.857 32.6014C119.857 35.1657 119.195 37.495 117.87 39.5892C116.588 41.6834 114.707 43.3502 112.228 44.5896C109.749 45.829 106.822 46.4488 103.445 46.4488ZM159.94 0.995962V9.7788H148.016V46H137.053V9.7788H125.129V0.995962H159.94Z" fill="white"/>
</svg>
